# xmcd
#
# Track frame offsets:
#	150
#	15344
#	34305
#	47376
#	58773
#	70788
#	87442
#	101226
#	118763
#	137036
#	149367
#	166644
#
# Disc length: 2367 seconds
# Revision: 0
# Processed by: cddbd v1.5.2PL0 Copyright (c) Steve Scherf et al.
# Submitted via: dBpowerAMP V12.0
#
DISCID=a0093d0c
DTITLE=Tom Maxwell - Behind The Boundary Gate
DYEAR=2017
DGENRE=Country
TTITLE0=Relics Of The Past
TTITLE1=Behind The Boundary Gate
TTITLE2=Baby Blue
TTITLE3=Ringer From The Top End
TTITLE4=Who Left The Door To Heaven Open
TTITLE5=Stringybark and Greenhide
TTITLE6=Lights On The Hill
TTITLE7=Three Rivers Hotel
TTITLE8=As Leichhardt Saw It Then
TTITLE9=Look At Us
TTITLE10=Man In The Mirror
TTITLE11=Loosin' My Blues 
EXTD=
EXTT0=
EXTT1=
EXTT2=
EXTT3=
EXTT4=
EXTT5=
EXTT6=
EXTT7=
EXTT8=
EXTT9=
EXTT10=
EXTT11=
PLAYORDER=
